<svg width="33" height="33" viewBox="0 0 33 33" fill="none" xmlns="http://www.w3.org/2000/svg">
<rect x="0.319336" y="0.425842" width="32" height="32" rx="16" fill="#1F1D2B"/>
<path d="M17.631 16.4229L12.5368 21.6605C12.3965 21.8043 12.3193 21.9967 12.3193 22.2018C12.3193 22.407 12.3965 22.5993 12.5368 22.7434L12.9832 23.2021C13.1232 23.3464 13.3104 23.4258 13.5099 23.4258C13.7094 23.4258 13.8964 23.3464 14.0366 23.2021L20.1021 16.9663C20.2428 16.8217 20.3199 16.6286 20.3193 16.4232C20.3199 16.217 20.2429 16.0241 20.1021 15.8794L14.0422 9.64961C13.9021 9.50529 13.7151 9.42584 13.5155 9.42584C13.316 9.42584 13.129 9.50529 12.9887 9.64961L12.5424 10.1083C12.252 10.4069 12.252 10.8929 12.5424 11.1913L17.631 16.4229Z" fill="#12CDD9"/>
</svg>
