<svg width="49" height="48" viewBox="0 0 49 48" fill="none" xmlns="http://www.w3.org/2000/svg">
<path d="M19.3889 2.88675C22.4829 1.10042 26.2949 1.10042 29.3889 2.88675L40.1735 9.11325C43.2675 10.8996 45.1735 14.2008 45.1735 17.7735V30.2265C45.1735 33.7992 43.2675 37.1004 40.1735 38.8868L29.3889 45.1132C26.2949 46.8996 22.4829 46.8996 19.3889 45.1132L8.60431 38.8868C5.5103 37.1004 3.60431 33.7992 3.60431 30.2265V17.7735C3.60431 14.2008 5.5103 10.8996 8.60431 9.11325L19.3889 2.88675Z" fill="#05D8E8" fill-opacity="0.2"/>
<path d="M16.8889 24.366C16.2222 23.9811 16.2222 23.0189 16.8889 22.634L26.6389 17.0048C27.3056 16.6199 28.1389 17.101 28.1389 17.8708V29.1292C28.1389 29.899 27.3056 30.3801 26.6389 29.9952L16.8889 24.366Z" fill="#01012A"/>
</svg>
