<svg width="42" height="46" viewBox="0 0 42 46" fill="none" xmlns="http://www.w3.org/2000/svg">
<path d="M16.0996 2.27158C19.1936 0.48525 23.0056 0.48525 26.0996 2.27158L36.8842 8.49808C39.9782 10.2844 41.8842 13.5857 41.8842 17.1583V29.6113C41.8842 33.184 39.9782 36.4852 36.8842 38.2716L26.0996 44.4981C23.0056 46.2844 19.1936 46.2844 16.0996 44.4981L5.315 38.2716C2.22099 36.4852 0.315001 33.184 0.315001 29.6113V17.1583C0.315001 13.5857 2.22099 10.2844 5.315 8.49808L16.0996 2.27158Z" fill="#05D8E8" fill-opacity="0.2"/>
<path d="M13.5996 23.7509C12.9329 23.366 12.9329 22.4037 13.5996 22.0188L23.3496 16.3896C24.0163 16.0047 24.8496 16.4859 24.8496 17.2557V28.514C24.8496 29.2838 24.0163 29.7649 23.3496 29.38L13.5996 23.7509Z" fill="white"/>
</svg>
