<svg width="87" height="23" viewBox="0 0 87 23" fill="none" xmlns="http://www.w3.org/2000/svg">
<path d="M54.1181 22.8691C50.5952 22.8691 49.1357 18.7406 47.6762 14.7128C46.569 11.692 45.3612 8.26839 43.5997 8.26839C41.8383 8.26839 40.8317 9.72846 39.4226 12.1955C38.0134 14.6121 36.4029 17.3309 33.0814 17.3309C29.5585 17.3309 28.0486 13.2024 26.6395 9.17464C25.5323 6.1538 24.3244 2.73019 22.563 2.73019C20.8015 2.73019 19.5937 6.1538 18.4865 9.17464C17.027 13.1521 15.5675 17.3309 12.0446 17.3309C8.6727 17.3309 7.11256 14.6121 5.7034 12.1955C4.29424 9.7788 3.28769 8.26839 1.52624 8.26839C0.821665 8.26839 0.268066 7.71457 0.268066 7.00971C0.268066 6.30484 0.821665 5.75102 1.52624 5.75102C4.89816 5.75102 6.4583 8.46978 7.86746 10.8864C9.27662 13.3031 10.2832 14.8135 12.0446 14.8135C13.8061 14.8135 15.0139 11.3899 16.1211 8.36908C17.5806 4.39165 19.0401 0.21283 22.563 0.21283C26.0859 0.21283 27.5454 4.3413 29.0049 8.36908C30.1121 11.3899 31.3199 14.8135 33.0814 14.8135C34.8428 14.8135 35.8493 13.3535 37.2585 10.8864C38.6677 8.46978 40.2781 5.75102 43.5997 5.75102C47.1226 5.75102 48.5821 9.8795 50.0416 13.9073C51.1488 16.9281 52.3566 20.3517 54.1181 20.3517C55.8795 20.3517 57.0874 16.9281 58.1946 13.9073C59.6541 9.92984 61.1136 5.75102 64.6365 5.75102C68.0084 5.75102 69.5685 8.46978 70.9777 10.8864C72.3868 13.3031 73.3934 14.8135 75.1548 14.8135C76.9163 14.8135 77.9228 13.3535 79.332 10.8864C80.7411 8.46978 82.3516 5.75102 85.6732 5.75102C86.3778 5.75102 86.9314 6.30484 86.9314 7.00971C86.9314 7.71457 86.3778 8.26839 85.6732 8.26839C83.9118 8.26839 82.9052 9.72846 81.496 12.1955C80.0869 14.6121 78.4764 17.3309 75.1548 17.3309C71.8332 17.3309 70.2228 14.6121 68.8136 12.1955C67.4045 9.7788 66.3979 8.26839 64.6365 8.26839C62.875 8.26839 61.6672 11.692 60.56 14.7128C59.1005 18.7406 57.641 22.8691 54.1181 22.8691Z" fill="white" fill-opacity="0.3"/>
</svg>
