<svg width="48" height="48" viewBox="0 0 48 48" fill="none" xmlns="http://www.w3.org/2000/svg">
<path d="M19 2.88675C22.094 1.10042 25.906 1.10042 29 2.88675L39.7846 9.11325C42.8786 10.8996 44.7846 14.2008 44.7846 17.7735V30.2265C44.7846 33.7992 42.8786 37.1004 39.7846 38.8868L29 45.1132C25.906 46.8996 22.094 46.8996 19 45.1132L8.21539 38.8868C5.12138 37.1004 3.21539 33.7992 3.21539 30.2265V17.7735C3.21539 14.2008 5.12138 10.8996 8.21539 9.11325L19 2.88675Z" fill="#05D8E8" fill-opacity="0.2"/>
<path d="M30.5 24.366C31.1667 23.9811 31.1667 23.0189 30.5 22.634L20.75 17.0048C20.0833 16.6199 19.25 17.101 19.25 17.8708V29.1292C19.25 29.899 20.0833 30.3801 20.75 29.9952L30.5 24.366Z" fill="#01012A"/>
</svg>
