<svg width="15" height="13" viewBox="0 0 15 13" fill="none" xmlns="http://www.w3.org/2000/svg">
<path d="M7.56333 11.6018C7.54183 11.6143 7.52137 11.6262 7.50198 11.6374C7.48231 11.6259 7.46153 11.6137 7.43969 11.6008C7.24393 11.4852 6.963 11.3149 6.62536 11.0981C5.94911 10.6638 5.05007 10.0456 4.15351 9.30806C3.25448 8.56846 2.37285 7.72087 1.71977 6.83008C1.06259 5.93368 0.671387 5.04073 0.671387 4.19995C0.671387 2.27418 2.23253 0.713011 4.15833 0.713026L4.16223 0.712996C5.3394 0.703816 6.43993 1.2959 7.08095 2.28329L7.49787 2.9255L7.91823 2.28552C8.56443 1.30172 9.6634 0.710368 10.8405 0.713008C12.7629 0.722698 14.3191 2.27861 14.3292 4.20103C14.3289 5.05758 13.9364 5.95793 13.2804 6.85537C12.6277 7.74826 11.7466 8.59364 10.848 9.32928C9.9519 10.0629 9.05325 10.6754 8.37726 11.105C8.03977 11.3195 7.75898 11.4877 7.56333 11.6018Z" stroke="white"/>
</svg>
