<svg width="127" height="127" viewBox="0 0 127 127" fill="none" xmlns="http://www.w3.org/2000/svg">
<path d="M53.5 24.7735C59.688 21.2008 67.312 21.2008 73.5 24.7735L92.0381 35.4765C98.2262 39.0492 102.038 45.6517 102.038 52.797V74.203C102.038 81.3483 98.2262 87.9508 92.0381 91.5235L73.5 102.226C67.312 105.799 59.688 105.799 53.5 102.226L34.9619 91.5235C28.7738 87.9508 24.9619 81.3483 24.9619 74.203V52.797C24.9619 45.6517 28.7738 39.0492 34.9619 35.4765L53.5 24.7735Z" fill="#FF296D"/>
<path d="M73.25 6.20652L108.243 26.4095C114.276 29.8929 117.993 36.3303 117.993 43.297V83.703C117.993 90.6697 114.276 97.1071 108.243 100.59L73.25 120.793C67.2167 124.277 59.7833 124.277 53.75 120.793L18.7574 100.59C12.7241 97.1071 9.00739 90.6697 9.00739 83.703V43.297C9.00739 36.3303 12.7241 29.8928 18.7574 26.4095L53.75 6.20651C59.7833 2.72318 67.2167 2.72318 73.25 6.20652Z" stroke="#FF296D"/>
<path d="M73.25 14.2065L101.314 30.4095C107.348 33.8929 111.064 40.3303 111.064 47.297V79.703C111.064 86.6697 107.348 93.1071 101.314 96.5905L73.25 112.793C67.2167 116.277 59.7833 116.277 53.75 112.793L25.6856 96.5905C19.6523 93.1071 15.9356 86.6697 15.9356 79.703V47.297C15.9356 40.3303 19.6523 33.8928 25.6856 30.4095L53.75 14.2065C59.7833 10.7232 67.2167 10.7232 73.25 14.2065Z" stroke="#05D8E8"/>
<path d="M77.5 66.0981C79.5 64.9434 79.5 62.0566 77.5 60.9019L58.75 50.0766C56.75 48.9219 54.25 50.3653 54.25 52.6747V74.3253C54.25 76.6347 56.75 78.0781 58.75 76.9234L77.5 66.0981Z" fill="#01012A"/>
</svg>
