<svg width="111" height="122" viewBox="0 0 111 122" fill="none" xmlns="http://www.w3.org/2000/svg">
<path d="M45.5996 22.1583C51.7876 18.5857 59.4116 18.5857 65.5996 22.1583L84.1377 32.8613C90.3258 36.434 94.1377 43.0365 94.1377 50.1818V71.5878C94.1377 78.7331 90.3258 85.3357 84.1377 88.9083L65.5996 99.6113C59.4116 103.184 51.7876 103.184 45.5996 99.6113L27.0615 88.9083C20.8735 85.3357 17.0615 78.7331 17.0615 71.5878V50.1818C17.0615 43.0365 20.8735 36.434 27.0615 32.8613L45.5996 22.1583Z" fill="#FF296D"/>
<g filter="url(#filter0_i_0_1)">
<path d="M45.8496 3.59134C51.8829 0.108002 59.3163 0.108002 65.3496 3.59134L100.342 23.7943C106.376 27.2777 110.092 33.7152 110.092 40.6818V81.0878C110.092 88.0545 106.376 94.492 100.342 97.9753L65.3496 118.178C59.3163 121.662 51.8829 121.662 45.8496 118.178L10.857 97.9753C4.82367 94.492 1.10699 88.0545 1.10699 81.0878V40.6818C1.10699 33.7152 4.82367 27.2777 10.857 23.7943L45.8496 3.59134Z" stroke="#FF296D"/>
</g>
<g filter="url(#filter1_i_0_1)">
<path d="M45.8496 11.5913C51.8829 8.108 59.3163 8.108 65.3496 11.5913L93.414 27.7943C99.4473 31.2777 103.164 37.7152 103.164 44.6818V77.0878C103.164 84.0545 99.4473 90.492 93.414 93.9753L65.3496 110.178C59.3163 113.662 51.8829 113.662 45.8496 110.178L17.7852 93.9753C11.7519 90.492 8.0352 84.0545 8.0352 77.0878V44.6818C8.0352 37.7152 11.7519 31.2777 17.7852 27.7943L45.8496 11.5913Z" stroke="#05D8E8"/>
</g>
<path d="M69.5996 63.4829C71.5996 62.3282 71.5996 59.4415 69.5996 58.2868L50.8496 47.4614C48.8496 46.3067 46.3496 47.7501 46.3496 50.0595V71.7101C46.3496 74.0195 48.8496 75.4629 50.8496 74.3082L69.5996 63.4829Z" fill="white"/>
<defs>
<filter id="filter0_i_0_1" x="0.606934" y="0.478851" width="109.985" height="124.812" filterUnits="userSpaceOnUse" color-interpolation-filters="sRGB">
<feFlood flood-opacity="0" result="BackgroundImageFix"/>
<feBlend mode="normal" in="SourceGraphic" in2="BackgroundImageFix" result="shape"/>
<feColorMatrix in="SourceAlpha" type="matrix" values="0 0 0 0 0 0 0 0 0 0 0 0 0 0 0 0 0 0 127 0" result="hardAlpha"/>
<feOffset dy="4"/>
<feGaussianBlur stdDeviation="2"/>
<feComposite in2="hardAlpha" operator="arithmetic" k2="-1" k3="1"/>
<feColorMatrix type="matrix" values="0 0 0 0 0 0 0 0 0 0 0 0 0 0 0 0 0 0 0.25 0"/>
<feBlend mode="normal" in2="shape" result="effect1_innerShadow_0_1"/>
</filter>
<filter id="filter1_i_0_1" x="7.53516" y="8.47885" width="96.1289" height="108.812" filterUnits="userSpaceOnUse" color-interpolation-filters="sRGB">
<feFlood flood-opacity="0" result="BackgroundImageFix"/>
<feBlend mode="normal" in="SourceGraphic" in2="BackgroundImageFix" result="shape"/>
<feColorMatrix in="SourceAlpha" type="matrix" values="0 0 0 0 0 0 0 0 0 0 0 0 0 0 0 0 0 0 127 0" result="hardAlpha"/>
<feOffset dy="4"/>
<feGaussianBlur stdDeviation="2"/>
<feComposite in2="hardAlpha" operator="arithmetic" k2="-1" k3="1"/>
<feColorMatrix type="matrix" values="0 0 0 0 0 0 0 0 0 0 0 0 0 0 0 0 0 0 0.25 0"/>
<feBlend mode="normal" in2="shape" result="effect1_innerShadow_0_1"/>
</filter>
</defs>
</svg>
