<svg width="63" height="55" viewBox="0 0 63 55" fill="none" xmlns="http://www.w3.org/2000/svg">
<path d="M31.6369 53.6828C31.6053 53.7017 31.5758 53.7194 31.5485 53.7357C31.5209 53.719 31.4911 53.7009 31.4591 53.6815C31.2348 53.5451 30.9049 53.3423 30.4845 53.0776C29.6437 52.5482 28.4412 51.7711 26.9977 50.7828C24.1098 48.8055 20.2616 45.9855 16.4157 42.6125C12.5676 39.2376 8.73547 35.3209 5.86871 31.1522C2.99882 26.9789 1.12524 22.5951 1.12524 18.2755C1.12524 8.61688 8.46212 0.842339 17.4465 0.842356L17.4507 0.842322C22.9517 0.796585 28.1092 3.74615 31.1197 8.68981L31.5442 9.387L31.9724 8.69203C35.0041 3.77139 40.1494 0.828405 45.6448 0.842335C54.612 0.889254 61.9236 8.63735 61.968 18.2769C61.9676 22.6633 60.093 27.08 57.2242 31.264C54.3578 35.4444 50.5262 39.3525 46.6786 42.7106C42.8331 46.0668 38.9853 48.862 36.0977 50.8185C34.6544 51.7965 33.452 52.5642 32.6113 53.0869C32.191 53.3483 31.8612 53.5484 31.6369 53.6828Z" fill="#05D8E8" stroke="white"/>
</svg>
