<svg width="19" height="17" viewBox="0 0 19 17" fill="none" xmlns="http://www.w3.org/2000/svg">
<path d="M2.94919 12.1087H4.72788L9.97712 16.437C10.1243 16.5583 10.306 16.621 10.4896 16.621C10.6062 16.621 10.7234 16.5957 10.8329 16.5441C11.1149 16.4111 11.2948 16.1274 11.2948 15.8157V1.42629C11.2948 1.11457 11.1149 0.830872 10.8329 0.69787C10.551 0.564964 10.2178 0.606646 9.97712 0.80502L4.72296 5.1373H2.94919C1.50907 5.1373 0.337402 6.30896 0.337402 7.74909V9.49681C0.3374 10.937 1.50907 12.1087 2.94919 12.1087ZM1.94798 7.74909C1.94798 7.19703 2.39713 6.74788 2.94919 6.74788H5.01216C5.19914 6.74788 5.38021 6.68281 5.52452 6.56386L9.68418 3.134V14.108L5.52452 10.6781C5.37805 10.5573 5.19727 10.4954 5.01462 10.4954C4.9926 10.4954 4.97058 10.4963 4.94857 10.4981H2.9492C2.39713 10.4981 1.94799 10.049 1.94799 9.49681V7.74909H1.94798Z" fill="#32324E"/>
<path d="M15.944 14.0677C16.0839 14.1648 16.2439 14.2114 16.4024 14.2114C16.6573 14.2114 16.9083 14.0905 17.0647 13.8651C17.9228 12.6283 18.3764 10.8672 18.3764 8.77184C18.3764 6.67653 17.9228 4.91534 17.0647 3.6786C16.8109 3.31321 16.3093 3.22238 15.944 3.476C15.5786 3.72962 15.4878 4.23135 15.7414 4.59674C16.402 5.5488 16.7658 7.03149 16.7658 8.77184C16.7658 10.5122 16.402 11.9949 15.7414 12.9469C15.4878 13.3123 15.5786 13.8141 15.944 14.0677Z" fill="#32324E"/>
<path d="M13.3502 12.5673C13.4594 12.6177 13.5741 12.6416 13.6871 12.6416C13.9914 12.6416 14.2829 12.4681 14.4187 12.1736C14.8316 11.2788 15.059 10.0708 15.059 8.77183C15.059 7.47296 14.8316 6.26492 14.4187 5.37018C14.2323 4.96635 13.7538 4.79019 13.3502 4.97638C12.9464 5.16266 12.77 5.6411 12.9564 6.04492C13.2691 6.72262 13.4484 7.71655 13.4484 8.77183C13.4484 9.8272 13.2691 10.8211 12.9564 11.4987C12.77 11.9026 12.9464 12.3809 13.3502 12.5673Z" fill="#32324E"/>
</svg>
