<svg width="88" height="24" viewBox="0 0 88 24" fill="none" xmlns="http://www.w3.org/2000/svg">
<path d="M54.6647 23.5C51.1418 23.5 49.6823 19.3715 48.2229 15.3438C47.1157 12.3229 45.9078 8.89931 44.1464 8.89931C42.3849 8.89931 41.3784 10.3594 39.9692 12.8264C38.56 15.2431 36.9496 17.9618 33.628 17.9618C30.1051 17.9618 28.5953 13.8333 27.1861 9.80556C26.0789 6.78472 24.8711 3.36111 23.1096 3.36111C21.3482 3.36111 20.1403 6.78472 19.0331 9.80556C17.5736 13.783 16.1141 17.9618 12.5912 17.9618C9.21933 17.9618 7.65919 15.2431 6.25003 12.8264C4.84087 10.4097 3.83432 8.89931 2.07288 8.89931C1.3683 8.89931 0.814697 8.34549 0.814697 7.64063C0.814697 6.93576 1.3683 6.38195 2.07288 6.38195C5.44479 6.38195 7.00493 9.1007 8.41409 11.5174C9.82325 13.934 10.8298 15.4444 12.5912 15.4444C14.3527 15.4444 15.5605 12.0208 16.6677 9C18.1272 5.02257 19.5867 0.84375 23.1096 0.84375C26.6325 0.84375 28.092 4.97222 29.5515 9C30.6587 12.0208 31.8665 15.4444 33.628 15.4444C35.3894 15.4444 36.396 13.9844 37.8051 11.5174C39.2143 9.1007 40.8248 6.38195 44.1464 6.38195C47.6693 6.38195 49.1287 10.5104 50.5882 14.5382C51.6954 17.559 52.9033 20.9826 54.6647 20.9826C56.4262 20.9826 57.634 17.559 58.7412 14.5382C60.2007 10.5608 61.6602 6.38195 65.1831 6.38195C68.555 6.38195 70.1152 9.1007 71.5243 11.5174C72.9335 13.934 73.94 15.4444 75.7015 15.4444C77.4629 15.4444 78.4695 13.9844 79.8786 11.5174C81.2878 9.1007 82.8982 6.38195 86.2198 6.38195C86.9244 6.38195 87.478 6.93576 87.478 7.64063C87.478 8.34549 86.9244 8.89931 86.2198 8.89931C84.4584 8.89931 83.4518 10.3594 82.0427 12.8264C80.6335 15.2431 79.023 17.9618 75.7015 17.9618C72.3799 17.9618 70.7694 15.2431 69.3602 12.8264C67.9511 10.4097 66.9445 8.89931 65.1831 8.89931C63.4216 8.89931 62.2138 12.3229 61.1066 15.3438C59.6471 19.3715 58.1876 23.5 54.6647 23.5Z" fill="white"/>
</svg>
